# AST/ASF file generated using VICON BodyLanguage
# -----------------------------------------------
:version 1.10
:name VICON
:units
  mass 1.0
  length 0.1
  angle deg
:documentation
   .ast/.asf automatically generated from VICON data using
   VICON BodyBuilder and BodyLanguage model FULLBODY5.MOD
:root
   order TX TY TZ RZ RY RX
   axis XYZ
   position 0 0 0  
   orientation 0 -0 0 
:bonedata
  begin
     id 1 
     name lhipjoint
     direction 0.969109 -0.218487 0.11442 
     length 0.544217 
     axis 0 -0 0  XYZ
  end
  begin
     id 2 
     name lfemur
     direction 0.173648 -0.984808 0  
     length 1.81499  
     axis 0 -0 10  XYZ
    dof rx ry rz
    limits (-180.0 180.0)
           (-180.0 180.0)
           (-180.0 180.0)
  end
  begin
     id 3 
     name ltibia
     direction 0.173515 -0.984831 0   
     length 1.55296   
     axis 0 -0 10   XYZ
    dof rx ry rz
    limits (-180.0 180.0)
           (-180.0 180.0)
           (-180.0 180.0)
  end
  begin
     id 4 
     name lfoot
     direction 7.36097e-012 -0.333012 0.942922   
     length 0.509062   
     axis -90 -1.73656e-015 10   XYZ
    dof rx ry rz
    limits (-180.0 180.0)
           (-180.0 180.0)
           (-180.0 180.0)
  end
  begin
     id 5 
     name ltoes
     direction 7.7847e-012 -4.42403e-011 1   
     length 0.249732   
     axis -90 -1.73656e-015 10   XYZ
    dof rx ry rz
    limits (-180.0 180.0)
           (-180.0 180.0)
           (-180.0 180.0)
  end
  begin
     id 6 
     name rhipjoint
     direction -0.966745 -0.226554 0.118645   
     length 0.524838  
     axis 0 -0 0  XYZ 
  end
  begin
     id 7 
     name rfemur
     direction -0.173648 -0.984808 0   
     length 1.84625   
     axis 0 -0 -10   XYZ
    dof rx ry rz
    limits (-180.0 180.0)
           (-180.0 180.0)
           (-180.0 180.0)
  end
  begin
     id 8 
     name rtibia
     direction -0.173714 -0.984796 0   
     length 1.577   
     axis 0 -0 -10   XYZ
    dof rx ry rz
    limits (-180.0 180.0)
           (-180.0 180.0)
           (-180.0 180.0)
 end
 begin
     id 9 
     name rfoot
     direction -0.0183819 -0.0406144 0.999006   
     length 0.490111  
     axis -90 1.73656e-015 -10   XYZ
    dof rx ry rz
    limits (-180.0 180.0)
           (-180.0 180.0)
           (-180.0 180.0)
  end
  begin
     id 10 
     name rtoes
     direction -7.79087e-012 -4.42375e-011 1   
     length 0.245053   
     axis -90 1.73656e-015 -10   XYZ
    dof rx ry rz
    limits (-180.0 180.0)
           (-180.0 180.0)
           (-180.0 180.0)
  end
  begin
     id 11 
     name lowerback
     direction -0.0664844 0.980601 0.184393   
     length 0.458979   
     axis 0 -0 0   XYZ
    dof rx ry rz
    limits (-180.0 180.0)
           (-180.0 180.0)
           (-180.0 180.0)
  end
  begin
     id 12 
     name upperback
     direction 0.0135995 0.999573 0.02588   
     length 0.463983   
     axis 0 -0 0   XYZ
    dof rx ry rz
    limits (-180.0 180.0)
           (-180.0 180.0)
           (-180.0 180.0)
  end
  begin
     id 13 
     name thorax
     direction 0.0468402 0.997311 -0.0563691   
     length 0.482746   
     axis 0 -0 0   XYZ
    dof rx ry rz
    limits (-180.0 180.0)
           (-180.0 180.0)
           (-180.0 180.0)
  end
  begin
     id 14 
     name lowerneck
     direction -0.00174311 0.988586 -0.150647   
     length 0.364383   
     axis 0 -0 0   XYZ
    dof rx ry rz
    limits (-180.0 180.0)
           (-180.0 180.0)
           (-180.0 180.0)
  end
  begin
     id 15 
     name upperneck
     direction -0.02653 0.999379 -0.0231908   
     length 0.361006   
     axis 0 -0 0   XYZ
    dof rx ry rz
    limits (-180.0 180.0)
           (-180.0 180.0)
           (-180.0 180.0)
  end
  begin
     id 16
     name head
     direction -0.00819207 0.999941 0.00714285  
     length 0.378714  
     axis 0 -0 0   XYZ
    dof rx ry rz
    limits (-180.0 180.0)
           (-180.0 180.0)
           (-180.0 180.0)
  end
  begin
     id 17 
     name lshoulderjoint
     direction 0.981627 -0.190809 0  
     length 0.612969  
     axis 0 -0 -11   XYZ
    dof rx ry rz
    limits (-180.0 180.0)
           (-180.0 180.0)
           (-180.0 180.0)
  end
  begin
     id 18 
     name lhumerus
     direction 0.48481 -0.87462 -9.72962e-027   
     length 1.19637   
     axis -180 5.14477e-009 -151   XYZ
    dof rx ry rz
    limits (-180.0 180.0)
           (-180.0 180.0)
           (-180.0 180.0)
  end
  begin
     id 19
     name lradius
     direction 0.48481 -0.87462 -2.35761e-026   
     length 0.637735   
     axis -180 5.14477e-009 -151   XYZ
    dof rx ry rz
    limits (-180.0 180.0)
           (-180.0 180.0)
           (-180.0 180.0)
  end
  begin
     id 20
     name lwrist
     direction 0.48481 -0.87462 -5.51856e-026   
     length 0.318868   
     axis -180 5.14477e-009 -151   XYZ
    dof rx ry rz
    limits (-180.0 180.0)
           (-180.0 180.0)
           (-180.0 180.0)
  end
  begin
     id 21 
     name lhand
     direction 0.477747 -0.861928 -0.169816   
     length 0.29526   
     axis -180 5.14477e-009 -151   XYZ
    dof rx ry rz
    limits (-180.0 180.0)
           (-180.0 180.0)
           (-180.0 180.0)
  end
  begin
     id 22 
     name rshoulderjoint
     direction -0.981627 -0.190809 0   
     length 0.572347  
     axis 0 -0 11   XYZ 
    dof rx ry rz
    limits (-180.0 180.0)
           (-180.0 180.0)
           (-180.0 180.0)
  end
  begin
     id 23 
     name rhumerus
     direction -0.48481 -0.87462 1.64836e-026  
     length 1.28846   
     axis 180 5.14477e-009 151   XYZ
    dof rx ry rz
    limits (-180.0 180.0)
           (-180.0 180.0)
           (-180.0 180.0)
  end
  begin
     id 24 
     name rradius
     direction -0.48481 -0.87462 2.86827e-026   
     length 0.62107   
     axis 180 5.14477e-009 151   XYZ
    dof rx ry rz
    limits (-180.0 180.0)
           (-180.0 180.0)
           (-180.0 180.0)
  end
  begin
     id 25 
     name rwrist
     direction -0.48481 -0.87462 5.20942e-026   
     length 0.310535   
     axis 180 5.14477e-009 151   XYZ
    dof rx ry rz
    limits (-180.0 180.0)
           (-180.0 180.0)
           (-180.0 180.0)
  end
  begin
     id 26
     name rhand
     direction -0.477664 -0.861515 -0.172133   
     length 0.291321   
     axis 180 5.14477e-009 151   XYZ
    dof rx ry rz
    limits (-180.0 180.0)
           (-180.0 180.0)
           (-180.0 180.0)
  end
:hierarchy
  begin
    root lhipjoint rhipjoint lowerback 
    lhipjoint lfemur
    lfemur ltibia
    ltibia lfoot
    lfoot ltoes
    rhipjoint rfemur
    rfemur rtibia
    rtibia rfoot
    rfoot rtoes
    lowerback upperback
    upperback thorax
    thorax lowerneck lshoulderjoint rshoulderjoint
    lowerneck upperneck
    upperneck head
    lshoulderjoint lhumerus
    lhumerus lradius
    lradius lwrist
    lwrist lhand
    rshoulderjoint rhumerus
    rhumerus rradius
    rradius rwrist
    rwrist rhand
  end

:FULLY-SPECIFIED
:DEGREES
2620
root 9.72561 3.6813 -0.38283 463.024 -67.6431 100.423
lowerback -28.1277 -1.89897 -8.27662
upperback -7.27908 -0.944154 1.21282
thorax 7.42358 -0.832197 5.78472
lowerneck 15.0949 -1.51899 1.8645
upperneck 7.17889 -2.10415 -5.24952
head -0.340971 -1.12338 -1.88629
rshoulderjoint -2.63272 8.06482 -29.1469
rhumerus 346.677 -10.106 -411.1
rradius 21.6771 5.725e-014 5.56597e-014
rwrist -3.84823e-014 7.34404 6.09304e-014
rhand 8.36495 -6.28238 30.4095
lshoulderjoint -1.76112 -5.29874 29.4149
lhumerus 351.847 12.6301 415.276
lradius 13.6443 5.76476e-014 1.4233e-013
lwrist -1.00726e-013 -5.92803 2.35827e-013
lhand 6.89695 5.11717 -30.0536
rfemur -16.1399 21.8759 7.58187
rtibia 7.07673e-014 3.18055e-015 3.97569e-015
rfoot -178.595 -32.6981 158.491
rtoes 8.66701e-014 1.95853e-013 -1.55052e-014
lfemur -13.3284 -11.0468 -13.0614
ltibia 2.8625e-014 -7.95139e-015 -1.74931e-014
lfoot -8.0379 4.78519 11.4003
ltoes -7.95139e-014 1.2088e-013 1.55052e-014
2621
root 9.72272 3.68084 -0.384041 462.727 -67.6098 100.093
lowerback -28.1962 -1.91016 -8.3591
upperback -7.33425 -0.9321 1.14961
thorax 7.39065 -0.826756 5.76492
lowerneck 15.3514 -1.59535 1.97148
upperneck 7.08664 -2.1922 -5.21785
head -0.417416 -1.16159 -1.8897
rshoulderjoint -2.65174 8.13789 -29.1172
rhumerus 346.554 -10.2264 -411.142
rradius 21.6606 -3.57812e-014 2.66371e-013
rwrist -1.22506e-012 7.35827 6.8148e-013
rhand 8.39313 -6.37226 30.3857
lshoulderjoint -1.83956 -5.5116 29.4895
lhumerus 351.984 11.8567 415.556
lradius 13.8646 1.77713e-013 2.3059e-014
lwrist -1.20019e-012 -5.68167 -1.67004e-013
lhand 6.84387 4.8669 -30.0687
rfemur -16.1303 21.7487 7.59384
rtibia 2.22639e-014 4.77083e-014 0
rfoot -178.513 -32.5372 158.476
rtoes 1.83677e-013 6.61692e-013 -1.0138e-013
lfemur -13.3554 -11.2227 -13.0443
ltibia 8.11041e-014 -2.22639e-014 -3.33958e-014
lfoot -8.07543 4.72187 11.4779
ltoes -3.28591e-013 2.85399e-013 9.54166e-014
2622
root 9.72039 3.68042 -0.385184 462.379 -67.5882 99.7909
lowerback -28.1778 -1.9483 -8.37297
upperback -7.30047 -0.975406 1.17891
thorax 7.42755 -0.848263 5.79155
lowerneck 15.0876 -1.58956 1.88764
upperneck 7.15737 -2.19253 -5.17429
head -0.348864 -1.1666 -1.86113
rshoulderjoint -2.62844 8.0582 -29.1331
rhumerus 346.646 -10.2225 -411.103
rradius 21.684 0 -1.4551e-013
rwrist 2.40583e-013 7.46906 -3.03134e-013
rhand 8.44284 -6.4188 30.3105
lshoulderjoint -1.75431 -5.28206 29.4023
lhumerus 352.397 10.666 415.844
lradius 14.0453 2.34566e-014 -3.06128e-014
lwrist 1.13441e-013 -5.54658 -5.59215e-014
lhand 6.83173 4.76504 -30.1988
rfemur -16.1074 21.6293 7.68838
rtibia -1.51076e-014 -1.90833e-014 -1.11319e-014
rfoot -178.432 -32.3712 158.469
rtoes 1.39149e-013 4.99322e-014 -1.19668e-013
lfemur -13.3771 -11.3883 -12.9454
ltibia -9.54166e-015 -1.27222e-014 3.18055e-015
lfoot -8.09634 4.65404 11.542
ltoes -1.89442e-013 5.84054e-014 5.84427e-014
2623
root 9.71761 3.67994 -0.386186 462.047 -67.6057 99.4683
lowerback -28.0281 -1.89362 -8.27119
upperback -7.41914 -0.943396 0.996508
thorax 7.21286 -0.822767 5.53649
lowerneck 15.2264 -1.66245 2.18866
upperneck 7.19411 -2.24391 -5.12659
head -0.365339 -1.18626 -1.89617
rshoulderjoint -2.57584 7.97698 -28.9613
rhumerus 346.533 -10.1445 -411.226
rradius 21.6356 -6.91771e-014 -1.03368e-014
rwrist 1.63583e-013 7.43309 8.01877e-015
rhand 8.52638 -6.44385 30.288
lshoulderjoint -1.80339 -5.33212 29.7171
lhumerus 352.454 9.51247 416.146
lradius 14.1835 -5.89397e-014 -3.97569e-016
lwrist 2.19056e-013 -5.96967 5.39645e-014
lhand 6.60221 5.29632 -30.3972
rfemur -16.0369 21.496 7.76471
rtibia -6.36111e-014 -3.18055e-015 -1.59028e-015
rfoot -178.356 -32.224 158.451
rtoes -3.18055e-014 -1.94175e-013 7.4743e-014
lfemur -13.3541 -11.5696 -12.8943
ltibia -2.22639e-014 -1.11319e-014 7.95139e-015
lfoot -8.1308 4.67234 11.6037
ltoes 9.64106e-014 -5.57405e-014 -2.06736e-014
2624
root 9.71553 3.67941 -0.38721 461.686 -67.6129 99.1528
lowerback -28.0865 -1.94702 -8.37648
upperback -7.35813 -0.977704 1.09772
thorax 7.31681 -0.843591 5.70071
lowerneck 15.2056 -1.68993 2.05453
upperneck 7.10778 -2.29934 -5.1589
head -0.390683 -1.21377 -1.87987
rshoulderjoint -2.61688 8.05623 -29.0625
rhumerus 346.581 -10.3502 -411.125
rradius 21.6477 6.99722e-014 1.57437e-013
rwrist -6.76863e-013 7.48371 3.32016e-013
rhand 8.61776 -6.43501 30.2009
lshoulderjoint -1.78914 -5.35289 29.5122
lhumerus 352.867 8.72384 416.385
lradius 14.3036 6.81334e-014 4.69132e-014
lwrist -6.20583e-013 -6.13608 -9.19678e-015
lhand 6.72662 5.31565 -30.548
rfemur -15.9908 21.3665 7.87105
rtibia 4.77083e-014 2.8625e-014 -1.59028e-015
rfoot -178.301 -32.0833 158.449
rtoes 7.07673e-014 2.97568e-013 -7.4743e-014
lfemur -13.3557 -11.7449 -12.7998
ltibia -2.70347e-014 -1.11319e-014 -1.74931e-014
lfoot -8.14252 4.63109 11.6636
ltoes -5.46658e-014 1.22706e-013 1.15693e-013
2625
root 9.71345 3.67888 -0.388107 461.34 -67.6313 98.8299
lowerback -28.1184 -2.00589 -8.45592
upperback -7.29696 -1.02572 1.16988
thorax 7.41041 -0.870461 5.81246
lowerneck 15.1586 -1.69144 1.94336
upperneck 7.03057 -2.31665 -5.18156
head -0.407491 -1.22216 -1.86659
rshoulderjoint -2.65195 8.12994 -29.135
rhumerus 346.644 -10.3792 -411.052
rradius 21.6578 -1.35174e-014 1.7334e-013
rwrist -5.82319e-013 7.54977 4.04254e-013
rhand 8.64024 -6.54051 30.1536
lshoulderjoint -1.75808 -5.30881 29.3528
lhumerus 353.254 7.80519 416.632
lradius 14.5137 -1.70955e-014 6.30147e-014
lwrist -5.67748e-013 -6.08571 7.03688e-014
lhand 6.80204 5.23967 -30.7438
rfemur -15.9323 21.2308 7.95493
rtibia 7.79236e-014 3.18055e-015 -3.18055e-015
rfoot -178.252 -31.9441 158.447
rtoes 1.08934e-013 1.25682e-013 -6.44062e-014
lfemur -13.3414 -11.9257 -12.7335
ltibia 7.4743e-014 -1.59028e-015 -1.59028e-015
lfoot -8.15764 4.6141 11.7361
ltoes -1.35969e-013 6.53629e-014 7.15625e-015
2626
root 9.71123 3.67835 -0.388877 461.043 -67.6542 98.5338
lowerback -28.1128 -2.0264 -8.52721
upperback -7.28395 -1.03077 1.18225
thorax 7.42321 -0.873487 5.8663
lowerneck 15.261 -1.73925 1.96777
upperneck 6.91705 -2.37609 -5.24041
head -0.465311 -1.24643 -1.88668
rshoulderjoint -2.65939 8.13632 -29.1694
rhumerus 346.649 -10.3168 -411.039
rradius 21.6782 4.6118e-014 5.1684e-014
rwrist -1.29948e-013 7.58046 7.70063e-014
rhand 8.63641 -6.67461 30.139
lshoulderjoint -1.76993 -5.3557 29.3178
lhumerus 353.516 6.89426 416.885
lradius 14.747 1.94809e-014 5.52621e-014
lwrist -9.27631e-014 -6.11051 8.19674e-014
lhand 6.75722 5.27442 -30.9727
rfemur -15.864 21.1043 8.01679
rtibia 4.13472e-014 3.18055e-015 0
rfoot -178.186 -31.7931 158.426
rtoes -1.35174e-014 -1.26564e-013 -4.53229e-014
lfemur -13.3172 -12.0979 -12.6953
ltibia -1.59028e-014 -4.77083e-015 3.18055e-015
lfoot -8.16269 4.60999 11.8035
ltoes 6.93758e-014 -3.60484e-014 -1.19271e-014
